<?xml version="1.0" standalone="no"?>
<svg xmlns="http://www.w3.org/2000/svg" width="600" height="600" style="background: rgb(255, 255, 255);"><g transform="translate(282.5, 310)"><path d="M1.297,-222.496A222.5,222.5,0,0,1,211.206,-69.989L126.559,-42.486A133.5,133.5,0,0,0,1.297,-133.494Z" fill="#E64B35" stroke="#fff" stroke-width="1.5"/><path d="M212.007,-67.521A222.5,222.5,0,0,1,193.336,110.125L116.258,65.623A133.5,133.5,0,0,0,127.361,-40.018Z" fill="#4DBBD5" stroke="#fff" stroke-width="1.5" opacity="1"/><path d="M192.039,112.372A222.5,222.5,0,0,1,131.83,179.241L79.515,107.236A133.5,133.5,0,0,0,114.96,67.87Z" fill="#00A087" stroke="#fff" stroke-width="1.5" opacity="1"/><path d="M129.73,180.766A222.5,222.5,0,0,1,-192.039,112.372L-114.96,67.87A133.5,133.5,0,0,0,77.416,108.761Z" fill="#3C5488" stroke="#fff" stroke-width="1.5"/><path d="M-193.336,110.125A222.5,222.5,0,0,1,-1.297,-222.496L-1.297,-133.494A133.5,133.5,0,0,0,-116.258,65.623Z" fill="#F39B7F" stroke="#fff" stroke-width="1.5" opacity="1"/><text transform="translate(102.0101305353587, -145.40489937377214)" text-anchor="middle" style="font-size: 18px; font-family: &quot;Times New Roman&quot;; font-weight: bold; font-style: normal; fill: rgb(30, 41, 59);">20.0%</text><text transform="translate(172.59927494116386, 13.14091480010121)" text-anchor="middle" style="font-size: 18px; font-family: &quot;Times New Roman&quot;; font-weight: bold; font-style: normal; fill: rgb(30, 41, 59);">13.3%</text><polyline points="165.34972366872026,148.8815599148459 176.49689605088116,158.91851901022878 241.49689605088116,158.91851901022878" class="label-line" fill="none" stroke="#888" stroke-width="1.2" stroke-dasharray="3 2"/><circle cx="165.34972366872026" cy="148.8815599148459" class="leader-anchor"/><text x="247.49689605088116" y="162.91851901022878" dy="0.35em" text-anchor="start" style="font-size: 18px; font-family: &quot;Times New Roman&quot;; font-weight: bold; font-style: normal; fill: rgb(44, 62, 80);">6.7%</text><text transform="translate(-36.0830739414221, 164.757516107352)" text-anchor="middle" style="font-size: 18px; font-family: &quot;Times New Roman&quot;; font-weight: bold; font-style: normal; fill: rgb(30, 41, 59);">26.7%</text><text transform="translate(-150.2987088267894, -91.7749999999999)" text-anchor="middle" style="font-size: 18px; font-family: &quot;Times New Roman&quot;; font-weight: bold; font-style: normal; fill: rgb(30, 41, 59);">33.3%</text></g><text x="300" y="67.5" text-anchor="middle" style="font-size: 22px; font-family: &quot;Times New Roman&quot;; font-weight: bold; font-style: normal; fill: rgb(15, 23, 42);">BioStatPlot</text><g transform="translate(540.6, 214)"><text x="0" y="0" style="font-size: 16px; font-family: &quot;Times New Roman&quot;; font-weight: bold; font-style: normal; fill: rgb(31, 64, 104);">图例</text><g transform="translate(0, 18)"><rect width="18" height="18" fill="#E64B35" rx="2"/><text x="24" y="9" dy="0.35em" style="font-size: 17px; font-family: &quot;Times New Roman&quot;; font-weight: bold; font-style: normal; fill: rgb(51, 65, 85);">A</text></g><g transform="translate(0, 40)"><rect width="18" height="18" fill="#4DBBD5" rx="2"/><text x="24" y="9" dy="0.35em" style="font-size: 17px; font-family: &quot;Times New Roman&quot;; font-weight: bold; font-style: normal; fill: rgb(51, 65, 85);">B</text></g><g transform="translate(0, 62)"><rect width="18" height="18" fill="#00A087" rx="2"/><text x="24" y="9" dy="0.35em" style="font-size: 17px; font-family: &quot;Times New Roman&quot;; font-weight: bold; font-style: normal; fill: rgb(51, 65, 85);">C</text></g><g transform="translate(0, 84)"><rect width="18" height="18" fill="#3C5488" rx="2"/><text x="24" y="9" dy="0.35em" style="font-size: 17px; font-family: &quot;Times New Roman&quot;; font-weight: bold; font-style: normal; fill: rgb(51, 65, 85);">D</text></g><g transform="translate(0, 106)"><rect width="18" height="18" fill="#F39B7F" rx="2"/><text x="24" y="9" dy="0.35em" style="font-size: 17px; font-family: &quot;Times New Roman&quot;; font-weight: bold; font-style: normal; fill: rgb(51, 65, 85);">E</text></g></g></svg>